<?xml version="1.0" encoding="UTF-8"?>
<!-- Generator: visioncortex VTracer 0.6.4 -->
<svg version="1.1" xmlns="http://www.w3.org/2000/svg" width="1254" height="1254">
<path d="M0 0 C413.82 0 827.64 0 1254 0 C1254 413.82 1254 827.64 1254 1254 C840.18 1254 426.36 1254 0 1254 C0 840.18 0 426.36 0 0 Z " fill="#FDFDFD" transform="translate(0,0)"/>
<path d="M0 0 C0.76 -0 1.53 -0 2.31 -0.01 C4.86 -0.01 7.41 -0.01 9.96 -0.01 C11.81 -0.01 13.66 -0.01 15.51 -0.01 C20.59 -0.02 25.67 -0.02 30.75 -0.02 C36.23 -0.02 41.71 -0.02 47.19 -0.03 C57.92 -0.04 68.65 -0.04 79.39 -0.04 C88.12 -0.04 96.85 -0.04 105.58 -0.04 C126.31 -0.05 147.05 -0.06 167.78 -0.06 C168.44 -0.06 169.11 -0.06 169.79 -0.06 C173.15 -0.06 176.51 -0.06 179.87 -0.06 C180.54 -0.06 181.2 -0.06 181.89 -0.06 C183.24 -0.06 184.59 -0.06 185.94 -0.06 C206.91 -0.06 227.89 -0.06 248.86 -0.08 C272.44 -0.09 296.02 -0.1 319.61 -0.1 C332.08 -0.1 344.56 -0.1 357.04 -0.11 C367.67 -0.12 378.3 -0.12 388.93 -0.12 C394.35 -0.11 399.76 -0.11 405.18 -0.12 C410.15 -0.13 415.12 -0.13 420.09 -0.12 C421.88 -0.12 423.67 -0.12 425.46 -0.13 C473.41 -0.27 520.39 14.49 557.04 46.13 C557.79 46.78 558.55 47.42 559.33 48.09 C561.95 50.39 564.5 52.74 567.04 55.13 C567.6 55.66 568.17 56.19 568.75 56.73 C601.76 88.02 626.06 134.18 628.13 180.18 C628.17 182.23 628.17 184.27 628.17 186.32 C628.17 187.1 628.17 187.87 628.17 188.67 C628.18 191.26 628.17 193.85 628.17 196.43 C628.17 198.31 628.18 200.19 628.18 202.07 C628.18 207.23 628.18 212.38 628.18 217.53 C628.18 223.1 628.19 228.66 628.19 234.22 C628.2 245.12 628.2 256.01 628.21 266.9 C628.21 275.76 628.21 284.62 628.21 293.47 C628.22 314.5 628.22 335.53 628.22 356.56 C628.22 357.23 628.22 357.9 628.22 358.6 C628.22 362 628.22 365.41 628.22 368.82 C628.22 369.83 628.22 369.83 628.22 370.87 C628.22 372.23 628.22 373.6 628.22 374.97 C628.22 396.25 628.23 417.54 628.24 438.82 C628.26 462.74 628.27 486.67 628.27 510.59 C628.27 523.25 628.27 535.92 628.28 548.58 C628.29 559.36 628.29 570.14 628.28 580.92 C628.28 586.42 628.28 591.92 628.29 597.42 C628.3 602.46 628.3 607.49 628.29 612.53 C628.29 614.35 628.29 616.17 628.29 617.98 C628.32 627.91 627.9 637.34 626.04 647.13 C625.78 648.7 625.53 650.28 625.28 651.86 C618.94 688.13 602.05 720.6 577.32 747.62 C575.81 749.28 574.32 750.96 572.85 752.66 C567.43 758.92 561.54 764.03 555.04 769.13 C553.92 770.08 553.92 770.08 552.78 771.05 C518.98 799.56 475.84 813.29 432.21 813.27 C430.29 813.27 428.37 813.27 426.44 813.28 C421.17 813.29 415.9 813.29 410.63 813.29 C404.94 813.29 399.25 813.3 393.56 813.3 C381.12 813.32 368.69 813.32 356.25 813.33 C348.48 813.33 340.71 813.34 332.94 813.34 C311.42 813.35 289.9 813.36 268.38 813.37 C266.99 813.37 265.6 813.37 264.21 813.37 C262.81 813.37 261.42 813.37 260.03 813.37 C257.23 813.37 254.43 813.37 251.64 813.37 C250.95 813.37 250.25 813.37 249.54 813.37 C227.07 813.37 204.59 813.39 182.12 813.41 C158.34 813.44 134.56 813.45 110.78 813.45 C97.82 813.45 84.87 813.46 71.91 813.48 C60.88 813.49 49.85 813.5 38.82 813.49 C33.19 813.48 27.57 813.49 21.95 813.5 C16.79 813.51 11.63 813.51 6.47 813.5 C4.62 813.5 2.76 813.5 0.9 813.51 C-10.44 813.56 -20.88 812.64 -31.96 810.13 C-32.77 809.96 -33.58 809.78 -34.42 809.61 C-59.79 804.1 -83.84 793.16 -104.96 778.13 C-105.54 777.72 -106.11 777.32 -106.7 776.9 C-137.03 755.2 -160.38 725.33 -174.96 691.13 C-175.26 690.46 -175.55 689.78 -175.85 689.09 C-186.86 663.61 -190.12 636.56 -190.1 609.03 C-190.1 607.21 -190.1 605.39 -190.1 603.57 C-190.11 598.6 -190.11 593.62 -190.11 588.65 C-190.11 583.27 -190.11 577.89 -190.12 572.52 C-190.13 561.99 -190.13 551.47 -190.13 540.94 C-190.13 532.38 -190.13 523.82 -190.13 515.27 C-190.14 490.97 -190.15 466.68 -190.15 442.39 C-190.15 441.08 -190.15 439.77 -190.15 438.42 C-190.15 437.11 -190.15 435.8 -190.15 434.45 C-190.15 413.23 -190.16 392.01 -190.17 370.79 C-190.18 348.97 -190.19 327.16 -190.19 305.34 C-190.19 293.1 -190.19 280.87 -190.2 268.63 C-190.21 258.21 -190.22 247.79 -190.21 237.36 C-190.21 232.05 -190.21 226.74 -190.21 221.43 C-190.22 216.56 -190.22 211.68 -190.21 206.81 C-190.21 205.06 -190.21 203.31 -190.22 201.56 C-190.26 186.14 -189.57 170.56 -185.71 155.57 C-185.38 154.26 -185.38 154.26 -185.05 152.92 C-184.38 150.32 -183.68 147.72 -182.96 145.13 C-182.76 144.38 -182.55 143.63 -182.34 142.85 C-179.51 132.87 -175.48 123.56 -171.02 114.19 C-170.53 113.16 -170.04 112.13 -169.54 111.07 C-166.13 104.1 -162.27 97.58 -157.96 91.13 C-157.54 90.49 -157.12 89.85 -156.68 89.2 C-144.67 71.39 -129.97 55.26 -112.96 42.13 C-112.41 41.7 -111.85 41.26 -111.27 40.82 C-93.68 27.21 -73.25 15.81 -51.96 9.13 C-50.97 8.81 -49.98 8.48 -48.96 8.15 C-33.38 3.35 -16.33 -0.05 0 0 Z " fill="#065257" transform="translate(407.9619197845459,219.87136554718018)"/>
<path d="M0 0 C10.95 7.77 19.83 19.53 28.73 29.48 C31.93 33.03 35.17 36.54 38.42 40.04 C41.81 43.71 45.19 47.38 48.56 51.06 C49.24 51.8 49.24 51.8 49.93 52.56 C52.16 54.99 54.38 57.42 56.61 59.86 C57.48 60.81 58.35 61.77 59.25 62.75 C59.69 63.23 60.13 63.72 60.59 64.21 C63.28 67.15 66 70.07 68.75 72.96 C89.48 94.85 89.48 94.85 89.33 107.31 C88.84 112.75 87.49 116.78 84 121 C76.63 126.82 70.5 128.16 61.3 128.1 C60.46 128.1 59.62 128.09 58.76 128.09 C56.09 128.09 53.42 128.08 50.75 128.06 C48.94 128.06 47.13 128.05 45.31 128.05 C40.87 128.04 36.44 128.02 32 128 C32.01 129.18 32.02 130.36 32.03 131.57 C32.07 136.03 32.09 140.49 32.11 144.96 C32.12 146.87 32.13 148.78 32.15 150.7 C32.26 163.29 31.75 175.52 30 188 C29.8 189.41 29.8 189.41 29.61 190.84 C24.14 226.5 8.14 261.23 -16 288 C-17.13 289.33 -18.25 290.67 -19.38 292 C-42.24 317.73 -71.08 335.98 -103.54 347.15 C-105.28 347.75 -107.02 348.37 -108.76 349 C-116.4 351.69 -124.01 353.33 -132 354.69 C-133.18 354.9 -134.36 355.11 -135.58 355.33 C-147.32 357.38 -158.88 358.15 -170.79 358.18 C-172.62 358.19 -172.62 358.19 -174.48 358.2 C-178.48 358.22 -182.48 358.23 -186.48 358.24 C-187.87 358.24 -189.26 358.25 -190.66 358.25 C-197.22 358.27 -203.78 358.28 -210.34 358.29 C-217.83 358.3 -225.32 358.33 -232.81 358.37 C-238.65 358.4 -244.49 358.41 -250.34 358.42 C-253.8 358.42 -257.26 358.43 -260.73 358.45 C-282.4 358.59 -303.1 356.99 -324 351 C-325.04 350.73 -326.09 350.47 -327.16 350.19 C-332.23 348.9 -336.86 347.31 -341.59 345.08 C-344.35 343.84 -347.16 342.84 -350 341.81 C-383.14 329.18 -414.9 303.08 -435 274 C-435.65 273.07 -435.65 273.07 -436.31 272.12 C-463.87 232.1 -475.64 187.23 -475.64 139.02 C-475.64 137 -475.65 134.98 -475.66 132.95 C-475.69 126.63 -475.69 120.3 -475.69 113.98 C-475.68 107.51 -475.71 101.03 -475.77 94.56 C-475.81 88.94 -475.83 83.32 -475.82 77.7 C-475.82 74.37 -475.83 71.04 -475.86 67.71 C-476.01 51.23 -475.76 39.02 -464.81 26 C-457.79 19.7 -448.63 15.89 -439.3 15.84 C-438.62 15.83 -437.95 15.83 -437.25 15.82 C-435.01 15.81 -432.77 15.8 -430.53 15.8 C-428.96 15.79 -427.4 15.79 -425.84 15.78 C-422.55 15.77 -419.27 15.76 -415.99 15.76 C-411.8 15.75 -407.62 15.73 -403.44 15.7 C-400.2 15.68 -396.97 15.68 -393.74 15.68 C-392.2 15.67 -390.66 15.67 -389.11 15.65 C-375.25 15.54 -364.49 17.19 -354.02 26.82 C-347.22 33.98 -343.87 43.01 -343.88 52.86 C-343.88 54.29 -343.88 54.29 -343.88 55.75 C-343.88 57.3 -343.88 57.3 -343.89 58.88 C-343.89 61.16 -343.89 63.44 -343.89 65.71 C-343.89 66.92 -343.89 68.13 -343.89 69.37 C-343.9 75.8 -343.87 82.22 -343.85 88.65 C-343.82 96.81 -343.81 104.97 -343.82 113.13 C-343.84 119.74 -343.82 126.34 -343.78 132.95 C-343.77 135.45 -343.78 137.95 -343.79 140.45 C-343.94 170.62 -336.22 193.64 -315.38 215.79 C-294.33 236.02 -268.67 241.49 -240.39 241.43 C-238.21 241.44 -236.03 241.44 -233.85 241.45 C-229.31 241.46 -224.76 241.46 -220.21 241.45 C-214.43 241.43 -208.65 241.45 -202.87 241.48 C-198.37 241.5 -193.88 241.5 -189.38 241.5 C-187.25 241.5 -185.12 241.5 -182.99 241.51 C-166.81 241.6 -150.58 240.79 -136 233 C-134.87 232.46 -133.75 231.91 -132.59 231.36 C-112.38 221.41 -95.24 203.95 -87.11 182.67 C-85.4 177.53 -84.06 172.32 -83 167 C-82.82 166.11 -82.64 165.21 -82.46 164.29 C-81.01 156.44 -80.58 148.71 -80.38 140.75 C-80.34 139.52 -80.3 138.28 -80.26 137.01 C-80.16 134.01 -80.08 131 -80 128 C-81.08 128.01 -81.08 128.01 -82.18 128.02 C-106.31 128.17 -106.31 128.17 -117.81 127.75 C-118.56 127.74 -119.31 127.72 -120.09 127.71 C-125.13 127.47 -128.08 126.15 -132 123 C-136.03 118.53 -137.41 115.15 -137.31 109.05 C-136.78 105.53 -134.86 103.61 -132.52 101.02 C-131.79 100.2 -131.79 100.2 -131.04 99.37 C-124.24 91.87 -116.97 84.79 -109.75 77.69 C-107.61 75.58 -105.47 73.46 -103.34 71.35 C-102.03 70.05 -100.71 68.75 -99.39 67.45 C-96.31 64.41 -93.36 61.32 -90.54 58.04 C-86.92 53.85 -83.06 49.95 -79.12 46.06 C-78.03 44.98 -78.03 44.98 -76.92 43.87 C-73.84 40.8 -70.75 37.75 -67.67 34.69 C-65.4 32.44 -63.14 30.19 -60.88 27.94 C-59.85 26.92 -59.85 26.92 -58.8 25.89 C-54.87 21.98 -51.14 17.97 -47.53 13.77 C-35.5 -0.12 -18.16 -12.06 0 0 Z " fill="#FCFDFD" transform="translate(834,555)"/>
<path d="M0 0 C0.89 -0.01 1.78 -0.01 2.7 -0.02 C5.64 -0.04 8.59 -0.04 11.54 -0.05 C13.58 -0.05 15.63 -0.06 17.67 -0.07 C21.97 -0.08 26.26 -0.08 30.55 -0.08 C36.05 -0.08 41.55 -0.11 47.05 -0.14 C51.28 -0.16 55.51 -0.17 59.74 -0.17 C61.76 -0.17 63.79 -0.18 65.82 -0.19 C68.66 -0.21 71.49 -0.21 74.33 -0.2 C75.17 -0.21 76 -0.22 76.87 -0.23 C80.86 -0.19 82.83 -0 86.29 2.18 C88.56 4.57 89.14 5.95 89.73 9.16 C89.92 10.11 90.11 11.07 90.31 12.06 C90.49 13.08 90.67 14.11 90.86 15.17 C91.16 16.76 91.16 16.76 91.47 18.4 C92.1 21.69 92.7 24.99 93.29 28.29 C93.66 30.23 94.02 32.16 94.39 34.1 C96.18 43.61 97.76 53.15 99.22 62.72 C100.1 68.4 101.31 73.95 102.68 79.53 C103.21 81.92 103.53 84.17 103.73 86.6 C104.17 91.65 105.56 96.45 106.85 101.33 C108.06 106.04 108.83 110.6 109.12 115.47 C109.19 117.39 109.19 117.39 110.29 119.29 C113.83 136.28 117.42 157.31 107.72 172.81 C104.15 177.65 100.07 181.66 95.29 185.29 C94.37 186.01 93.44 186.73 92.48 187.48 C81.83 193.53 70.46 192.75 58.58 192.72 C56.56 192.73 54.53 192.73 52.51 192.74 C48.29 192.75 44.06 192.75 39.84 192.74 C34.45 192.73 29.06 192.75 23.66 192.77 C19.49 192.79 15.32 192.79 11.15 192.79 C9.16 192.79 7.18 192.79 5.19 192.81 C-8.88 192.88 -20.86 192.32 -31.71 182.29 C-41.81 172.13 -45.82 163.45 -45.96 149.1 C-45.97 148.43 -45.98 147.75 -45.98 147.05 C-45.96 142.72 -45.16 139.34 -43.71 135.29 C-43.19 132.71 -42.71 130.14 -42.27 127.54 C-41.47 123.05 -40.63 118.69 -39.21 114.35 C-37.78 109.96 -37.01 105.52 -36.27 100.98 C-35.42 95.83 -34.41 90.95 -32.77 85.98 C-31.06 80.77 -29.91 75.61 -28.89 70.23 C-26.85 59.43 -24.15 48.83 -21.44 38.19 C-19.66 31.16 -17.99 24.11 -16.39 17.04 C-12.45 -0.01 -12.45 -0.01 0 0 Z " fill="#FC920B" transform="translate(589.70654296875,346.70947265625)"/>
<path d="M0 0 C0.72 -0.01 1.45 -0.01 2.2 -0.02 C4.57 -0.04 6.95 -0.05 9.33 -0.06 C10.15 -0.07 10.96 -0.07 11.8 -0.07 C16.11 -0.09 20.42 -0.11 24.73 -0.12 C29.18 -0.13 33.63 -0.16 38.08 -0.2 C41.5 -0.23 44.93 -0.24 48.36 -0.24 C50 -0.25 51.64 -0.26 53.28 -0.28 C55.57 -0.3 57.86 -0.3 60.16 -0.29 C61.46 -0.3 62.76 -0.3 64.11 -0.31 C68.09 0.26 69.78 1.25 72.51 4.18 C72.57 11.01 70.06 17.53 68.01 23.99 C67.66 25.13 67.3 26.26 66.94 27.43 C64.06 36.61 61.02 45.72 57.95 54.84 C52.22 71.92 46.68 89.12 42.1 106.55 C41.03 110.54 39.74 114.36 38.25 118.21 C37.09 121.3 36.12 124.45 35.14 127.61 C34.92 128.3 34.71 128.98 34.49 129.68 C33.38 133.25 32.33 136.82 31.36 140.43 C29.34 147.91 26.97 154.91 23.51 161.86 C23.19 162.51 22.87 163.16 22.54 163.83 C17.48 173.57 9.22 181.48 -1.3 185.11 C-6.85 186.74 -12.36 187.3 -18.13 187.37 C-19.43 187.39 -20.73 187.4 -22.07 187.42 C-23.48 187.43 -24.9 187.44 -26.31 187.45 C-27.03 187.46 -27.74 187.46 -28.48 187.47 C-32.29 187.49 -36.1 187.51 -39.91 187.53 C-43.03 187.54 -46.16 187.57 -49.29 187.61 C-53.09 187.66 -56.89 187.68 -60.69 187.69 C-62.12 187.7 -63.56 187.71 -64.99 187.74 C-78.54 187.95 -89.53 184.7 -99.49 175.18 C-108.18 165.67 -110.9 155.39 -110.76 142.73 C-110.04 133.29 -104.54 125.43 -99.83 117.45 C-98.28 114.82 -96.74 112.18 -95.21 109.54 C-85.09 92.14 -74.88 74.8 -64.6 57.5 C-61.32 51.97 -58.05 46.43 -54.81 40.87 C-54.24 39.88 -53.67 38.9 -53.08 37.89 C-52.02 36.07 -50.96 34.24 -49.91 32.42 C-41.26 17.6 -30.51 5.7 -13.49 1.18 C-8.95 0.28 -4.62 0.03 0 0 Z " fill="#FC920B" transform="translate(469.486572265625,346.822998046875)"/>
<path d="M0 0 C0.73 -0.01 1.46 -0.02 2.2 -0.03 C4.61 -0.05 7.02 -0.04 9.42 -0.03 C11.11 -0.04 12.79 -0.04 14.48 -0.05 C18.02 -0.06 21.55 -0.06 25.09 -0.04 C29.59 -0.03 34.08 -0.05 38.57 -0.08 C42.06 -0.11 45.54 -0.1 49.03 -0.1 C50.68 -0.1 52.34 -0.1 53.99 -0.12 C69.76 -0.24 83.65 2.44 95.72 13.53 C100.99 18.94 104.88 24.73 108.59 31.28 C109.72 33.24 110.85 35.19 111.99 37.14 C112.59 38.18 113.19 39.21 113.8 40.27 C116.85 45.47 119.99 50.61 123.12 55.75 C129.79 66.67 136.36 77.65 142.86 88.68 C145.37 92.96 147.91 97.22 150.47 101.47 C150.82 102.06 151.17 102.65 151.53 103.25 C153.39 106.34 155.25 109.42 157.13 112.5 C165.24 125.88 171.7 137.24 168.07 153.42 C164.31 163.62 156.98 172.11 147.13 176.75 C140.79 179.36 135.64 180.66 128.75 180.73 C127.71 180.74 127.71 180.74 126.65 180.75 C124.36 180.78 122.07 180.79 119.78 180.81 C118.99 180.81 118.2 180.82 117.39 180.82 C113.22 180.85 109.05 180.87 104.88 180.88 C101.45 180.9 98.02 180.92 94.59 180.97 C90.43 181.02 86.27 181.04 82.11 181.05 C80.53 181.05 78.96 181.07 77.38 181.09 C65.12 181.27 54.13 179.64 44.9 170.85 C44.07 170.08 43.24 169.31 42.38 168.52 C35.04 160.66 31.45 153.02 29.03 142.6 C27.23 135.22 25.3 128.09 22.61 120.99 C21.42 117.73 20.56 114.47 19.72 111.1 C18.26 105.47 16.59 99.98 14.72 94.48 C11.65 85.44 9.07 76.3 6.74 67.04 C5.81 63.55 5.81 63.55 4.35 60.45 C2.35 55.86 1 51.1 -0.39 46.3 C-0.81 44.85 -0.81 44.85 -1.24 43.38 C-2.13 40.33 -3.02 37.27 -3.91 34.22 C-4.8 31.15 -5.7 28.08 -6.6 25.01 C-7.16 23.1 -7.71 21.2 -8.27 19.29 C-8.52 18.43 -8.77 17.57 -9.03 16.69 C-9.24 15.93 -9.46 15.18 -9.69 14.4 C-10.25 12.47 -10.25 12.47 -11.28 10.53 C-11.66 7.07 -11.79 5.24 -9.72 2.37 C-6.38 -0.15 -4.16 0.02 0 0 Z " fill="#FD920A" transform="translate(723.284423828125,346.466552734375)"/>
<path d="M0 0 C0.89 -0 1.79 -0.01 2.71 -0.01 C5.67 -0.02 8.62 -0.01 11.58 0.01 C13.63 0.01 15.68 0.01 17.73 0.01 C22.03 0.01 26.33 0.02 30.63 0.04 C36.15 0.06 41.67 0.06 47.19 0.05 C51.43 0.05 55.66 0.06 59.9 0.07 C61.93 0.07 63.97 0.07 66.01 0.07 C68.84 0.07 71.68 0.08 74.52 0.1 C75.79 0.09 75.79 0.09 77.09 0.09 C82.9 0.14 82.9 0.14 85.13 2.37 C81.85 4.01 78.21 3.53 74.6 3.55 C73.72 3.55 72.83 3.56 71.92 3.57 C70 3.58 68.08 3.59 66.16 3.6 C63.12 3.62 60.08 3.64 57.05 3.67 C48.41 3.74 39.77 3.8 31.13 3.85 C25.85 3.88 20.57 3.92 15.29 3.97 C13.27 3.99 11.26 4 9.24 4.01 C6.43 4.02 3.61 4.04 0.79 4.07 C-0.04 4.07 -0.88 4.07 -1.74 4.07 C-5.63 4.12 -7.56 4.17 -10.87 6.37 C-10.87 5.71 -10.87 5.05 -10.87 4.37 C-11.53 4.04 -12.19 3.71 -12.87 3.37 C-9.14 -0.44 -4.99 -0.05 0 0 Z " fill="#DB921A" transform="translate(589.86767578125,346.627685546875)"/>
<path d="M0 0 C0.75 -0 1.5 -0 2.28 -0 C4.76 0 7.23 0.03 9.71 0.06 C11.43 0.07 13.15 0.08 14.87 0.08 C19.4 0.1 23.92 0.14 28.45 0.18 C33.06 0.22 37.68 0.24 42.3 0.26 C51.36 0.3 60.42 0.37 69.48 0.45 C69.48 1.44 69.48 2.43 69.48 3.45 C44.73 3.78 19.98 4.11 -5.52 4.45 C-6.84 7.09 -8.16 9.73 -9.52 12.45 C-11.52 10.45 -11.52 10.45 -11.9 7.58 C-11.52 4.45 -11.52 4.45 -9.97 2.29 C-6.7 -0.17 -3.93 -0.08 0 0 Z " fill="#C78B21" transform="translate(723.5224609375,346.5458984375)"/>
<path d="M0 0 C0.04 1.67 0.04 3.33 0 5 C-0.99 3.51 -0.99 3.51 -2 2 C-2.99 1.67 -3.98 1.34 -5 1 C-5 0.34 -5 -0.32 -5 -1 C-29.75 -1 -54.5 -1 -80 -1 C-80 -1.33 -80 -1.66 -80 -2 C-70.29 -2.18 -60.58 -2.34 -50.87 -2.49 C-46.36 -2.57 -41.85 -2.64 -37.35 -2.72 C-32.99 -2.8 -28.64 -2.87 -24.29 -2.94 C-22.63 -2.96 -20.97 -2.99 -19.31 -3.03 C-16.99 -3.07 -14.66 -3.11 -12.34 -3.14 C-11.65 -3.15 -10.97 -3.17 -10.26 -3.19 C-6.19 -3.22 -2.98 -2.98 0 0 Z " fill="#F29213" transform="translate(542,351)"/>
<path d="M0 0 C0.66 0.33 1.32 0.66 2 1 C1.36 1.64 0.72 2.28 0.06 2.94 C-0.39 3.39 -0.83 3.84 -1.3 4.3 C-2.61 5.62 -3.94 6.92 -5.27 8.23 C-6.06 9.02 -6.86 9.81 -7.69 10.62 C-8.45 11.38 -9.22 12.14 -10.01 12.91 C-12.15 15.04 -12.15 15.04 -14 18 C-14.99 17.67 -15.98 17.34 -17 17 C-11.39 11.39 -5.78 5.78 0 0 Z " fill="#D4E4E5" transform="translate(799,556)"/>
<path d="M0 0 C0 3 0 3 -1.97 5.26 C-2.8 6.06 -3.64 6.86 -4.5 7.69 C-5.34 8.5 -6.17 9.3 -7.03 10.14 C-7.68 10.75 -8.33 11.37 -9 12 C-9.66 11.34 -10.32 10.68 -11 10 C-9.73 8.71 -8.46 7.41 -7.19 6.12 C-6.48 5.41 -5.77 4.69 -5.04 3.95 C-3 2 -3 2 0 0 Z " fill="#EC910F" transform="translate(439,356)"/>
<path d="M0 0 C0.66 0.33 1.32 0.66 2 1 C1.67 2.98 1.34 4.96 1 7 C0.34 7 -0.32 7 -1 7 C-1.33 9.97 -1.66 12.94 -2 16 C-2.66 16 -3.32 16 -4 16 C-3.4 10.35 -1.92 5.34 0 0 Z " fill="#446045" transform="translate(522,416)"/>
<path d="M0 0 C0 0.66 0 1.32 0 2 C-0.66 2 -1.32 2 -2 2 C-1.77 2.74 -1.55 3.49 -1.31 4.25 C-1 7 -1 7 -2.44 9.31 C-2.95 9.87 -3.47 10.43 -4 11 C-5.4 8.2 -5.25 6.1 -5 3 C-3.37 0.77 -2.8 0 0 0 Z " fill="#D8931C" transform="translate(717,348)"/>
<path d="M0 0 C-2.31 2.5 -2.31 2.5 -5 5 C-5.99 5 -6.98 5 -8 5 C-8 4.01 -8 3.02 -8 2 C-7.34 2 -6.68 2 -6 2 C-6 1.34 -6 0.68 -6 0 C-3 -1 -3 -1 0 0 Z " fill="#EA9319" transform="translate(881,515)"/>
<path d="M0 0 C0.33 0.99 0.66 1.98 1 3 C-4.61 2.34 -10.22 1.68 -16 1 C-16 0.67 -16 0.34 -16 0 C-10.31 -0.91 -5.69 -0.91 0 0 Z " fill="#477B80" transform="translate(829,550)"/>
<path d="M0 0 C0.33 0 0.66 0 1 0 C2.7 11.52 2.7 11.52 -1 17 C-1.66 17 -2.32 17 -3 17 C-2.69 16.05 -2.38 15.1 -2.06 14.12 C-0.72 9.49 -0.37 4.79 0 0 Z " fill="#518387" transform="translate(923,656)"/>
<path d="M0 0 C2.65 2.58 4.94 4.92 7 8 C4 8 4 8 2.61 6.69 C1.41 5.12 0.2 3.56 -1 2 C-0.67 1.34 -0.34 0.68 0 0 Z " fill="#E3ECED" transform="translate(511,763)"/>
<path d="M0 0 C2.6 0.02 2.6 0.02 5.62 0.38 C6.63 0.49 7.63 0.6 8.66 0.71 C9.82 0.85 9.82 0.85 11 1 C11 1.33 11 1.66 11 2 C8.02 2.29 8.02 2.29 5.04 2.59 C2.7 2.93 2.7 2.93 0 5 C0 4.34 0 3.68 0 3 C-0.66 2.67 -1.32 2.34 -2 2 C-1.34 1.34 -0.68 0.68 0 0 Z " fill="#E28F19" transform="translate(579,348)"/>
<path d="M0 0 C0.33 0 0.66 0 1 0 C1.32 5.26 0.67 8.45 -2 13 C-3.19 9.57 -2.8 7.62 -1.56 4.25 C-1.28 3.45 -0.99 2.65 -0.69 1.83 C-0.46 1.22 -0.24 0.62 0 0 Z " fill="#506140" transform="translate(526,403)"/>
<path d="M0 0 C0.33 0.99 0.66 1.98 1 3 C-0.65 4.65 -2.3 6.3 -4 8 C-4.99 7.67 -5.98 7.34 -7 7 C-4.69 4.69 -2.38 2.38 0 0 Z " fill="#1C5C61" transform="translate(281,274)"/>
<path d="M0 0 C0.66 0.99 1.32 1.98 2 3 C0.82 3.93 0.82 3.93 -0.38 4.88 C-2.97 6.9 -2.97 6.9 -5 9 C-5 4.61 -2.87 3.23 0 0 Z " fill="#DFEAEB" transform="translate(731,763)"/>
<path d="M0 0 C0.66 0 1.32 0 2 0 C1.67 2.64 1.34 5.28 1 8 C0.01 8 -0.98 8 -2 8 C-1.34 5.36 -0.68 2.72 0 0 Z " fill="#EE940F" transform="translate(577,351)"/>
<path d="M0 0 C3.88 1.88 3.88 1.88 5 3 C5.04 4.67 5.04 6.33 5 8 C4.34 7.01 3.68 6.02 3 5 C2.01 4.67 1.02 4.34 0 4 C0 2.68 0 1.36 0 0 Z " fill="#D99320" transform="translate(537,348)"/>
<path d="M0 0 C0.66 0.33 1.32 0.66 2 1 C0.25 3.94 0.25 3.94 -2 7 C-3.32 7.33 -4.64 7.66 -6 8 C-4.02 5.36 -2.04 2.72 0 0 Z " fill="#DBE8E9" transform="translate(996,954)"/>
<path d="M0 0 C0.66 0.66 1.32 1.32 2 2 C0.02 4.97 0.02 4.97 -2 8 C-2.66 7.67 -3.32 7.34 -4 7 C-2.8 4.51 -1.55 2.32 0 0 Z " fill="#EB8E15" transform="translate(885,506)"/>
<path d="M0 0 C2 2 2 2 2.12 5.12 C2.08 6.07 2.04 7.02 2 8 C1.01 8.5 1.01 8.5 0 9 C-1.12 3.38 -1.12 3.38 0 0 Z " fill="#DA8E14" transform="translate(569,382)"/>
<path d="M0 0 C0.66 0.66 1.32 1.32 2 2 C0.35 3.98 -1.3 5.96 -3 8 C-3.33 7.01 -3.66 6.02 -4 5 C-2.06 2.31 -2.06 2.31 0 0 Z " fill="#EBF2F2" transform="translate(263,290)"/>
<path d="M0 0 C0.66 0 1.32 0 2 0 C2.12 2.88 2.12 2.88 2 6 C1.34 6.66 0.68 7.32 0 8 C-1.12 2.25 -1.12 2.25 0 0 Z " fill="#E48F0F" transform="translate(552,456)"/>
<path d="M0 0 C1 3 1 3 0.22 4.82 C-1.39 7.41 -1.39 7.41 -3 10 C-3.66 9.67 -4.32 9.34 -5 9 C-3.35 6.03 -1.7 3.06 0 0 Z " fill="#E29212" transform="translate(412,392)"/>
</svg>
